<?xml version="1.0" encoding="UTF-8" standalone="no"?>
<svg
   width="16"
   height="16"
   version="1.1"
   id="svg1805"
   sodipodi:docname="bmw-window-close-symbolic.svg"
   inkscape:version="1.1.2 (0a00cf5339, 2022-02-04)"
   xmlns:inkscape="http://www.inkscape.org/namespaces/inkscape"
   xmlns:sodipodi="http://sodipodi.sourceforge.net/DTD/sodipodi-0.dtd"
   xmlns="http://www.w3.org/2000/svg"
   xmlns:svg="http://www.w3.org/2000/svg">
  <defs
     id="defs1809" />
  <sodipodi:namedview
     id="namedview1807"
     pagecolor="#ffffff"
     bordercolor="#666666"
     borderopacity="1.0"
     inkscape:pageshadow="2"
     inkscape:pageopacity="0.0"
     inkscape:pagecheckerboard="0"
     showgrid="true"
     inkscape:zoom="48.753581"
     inkscape:cx="8.4096386"
     inkscape:cy="9.3736703"
     inkscape:window-width="1920"
     inkscape:window-height="1131"
     inkscape:window-x="0"
     inkscape:window-y="0"
     inkscape:window-maximized="1"
     inkscape:current-layer="svg1805">
    <inkscape:grid
       type="xygrid"
       id="grid1893" />
  </sodipodi:namedview>
  <path
     d="M 2.994,1.008 C 1.994,1.008 0.988,2 0.988,3 V 15.02 L 7,15 V 13 L 2.988,13.02 V 5 H 13 v 2 h 2 V 3 C 15,2 13.994,1.008 12.994,1.008 Z"
     font-family="sans-serif"
     font-weight="400"
     overflow="visible"
     style="text-indent:0;text-decoration-line:none;text-decoration-style:solid;text-decoration-color:#000000;text-transform:none;white-space:normal;isolation:auto;mix-blend-mode:normal;fill:#2e3436"
     id="path1799"
     sodipodi:nodetypes="ssccccccccsss" />
  <path
     d="m 8,8 h 1 0.03125 c 0.253906,0.011719 0.511719,0.128906 0.6875,0.3125 L 12,10.59375 14.3125,8.3125 C 14.578125,8.082031 14.757812,8.007812 15,8 h 1 v 1 c 0,0.285156 -0.03516,0.550781 -0.25,0.75 l -2.28125,2.28125 2.25,2.25 C 15.90625,14.46875 16,14.734375 16,15 v 1 h -1 c -0.265625,0 -0.53125,-0.09375 -0.71875,-0.28125 L 12,13.4375 9.71875,15.71875 C 9.53125,15.90625 9.265625,16 9,16 H 8 v -1 c 0,-0.265625 0.09375,-0.53125 0.28125,-0.71875 l 2.28125,-2.25 L 8.28125,9.75 C 8.070312,9.554688 7.976562,9.28125 8,9 Z m 0,0"
     fill="#222222"
     id="path3029"
     style="font-variation-settings:normal;opacity:1;vector-effect:none;fill:#2e3436;fill-opacity:1;stroke-width:1;stroke-linecap:butt;stroke-linejoin:miter;stroke-miterlimit:4;stroke-dasharray:none;stroke-dashoffset:0;stroke-opacity:1;-inkscape-stroke:none;stop-color:#000000;stop-opacity:1" />
</svg>
