<?xml version="1.0" encoding="UTF-8" standalone="no"?>
<svg
   width="16"
   height="16"
   version="1.1"
   id="svg859"
   sodipodi:docname="bmw-paste-effects-symbolic.svg"
   inkscape:version="1.1.2 (0a00cf5339, 2022-02-04)"
   xmlns:inkscape="http://www.inkscape.org/namespaces/inkscape"
   xmlns:sodipodi="http://sodipodi.sourceforge.net/DTD/sodipodi-0.dtd"
   xmlns="http://www.w3.org/2000/svg"
   xmlns:svg="http://www.w3.org/2000/svg">
  <defs
     id="defs863" />
  <sodipodi:namedview
     id="namedview861"
     pagecolor="#ffffff"
     bordercolor="#666666"
     borderopacity="1.0"
     inkscape:pageshadow="2"
     inkscape:pageopacity="0.0"
     inkscape:pagecheckerboard="0"
     showgrid="true"
     inkscape:zoom="30.619781"
     inkscape:cx="14.02688"
     inkscape:cy="7.5114841"
     inkscape:window-width="1920"
     inkscape:window-height="1163"
     inkscape:window-x="0"
     inkscape:window-y="0"
     inkscape:window-maximized="1"
     inkscape:current-layer="svg859">
    <inkscape:grid
       type="xygrid"
       id="grid963" />
  </sodipodi:namedview>
  <g
     fill="#222222"
     id="g951"
     transform="rotate(-90,11.5,5.5)">
    <path
       id="path949"
       d="M 11,5 H 10 C 9.742188,5 9.472656,5.128906 9.28125,5.3125 L 9,5.59375 V 1 H 7 V 5.59375 L 6.71875,5.3125 C 6.527344,5.128906 6.257812,5 6,5 H 5 V 6 C 5,6 5.089844,6.550781 5.28125,6.75 L 8,9.40625 10.71875,6.75 C 10.910156,6.550781 11,6.308594 11,6 Z M 16,2 C 16,2.41 15.73,2.75 15.38,2.91 15.26,2.96 15.14,3 15,3 14.45,3 14,2.55 14,2 c 0,-0.55 0.45,-1 1,-1 0.55,0 1,0.45 1,1 z m -3,-4 v 1 h -1 v 6 h 1 v 1 h -1 c 0,1 0,1 -1,2 h 3 c 1,0 1,-1 1,-1 V 4 C 15.14,4 15.28,4 15.41,3.97 16.32,3.78 17,2.97 17,2 17,0.9 16.1,0 15,0 V -3 C 15,-4 14,-4 14,-4 9.9636199,-4 6.886735,-4 3,-4 2,-4 2,-3 2,-3 V 7 C 2,7 2,8 3,8 H 5.048681 C 4,7 4,7 4,6 v -8 c 3.0556612,0 6.334851,0 9,0 z" />
  </g>
</svg>
