<?xml version="1.0" encoding="UTF-8" standalone="no"?>
<svg
   width="16"
   height="16"
   version="1.1"
   id="svg859"
   sodipodi:docname="bmw-copy-effects-symbolic.svg"
   inkscape:version="1.1.2 (0a00cf5339, 2022-02-04)"
   xmlns:inkscape="http://www.inkscape.org/namespaces/inkscape"
   xmlns:sodipodi="http://sodipodi.sourceforge.net/DTD/sodipodi-0.dtd"
   xmlns="http://www.w3.org/2000/svg"
   xmlns:svg="http://www.w3.org/2000/svg">
  <defs
     id="defs863" />
  <sodipodi:namedview
     id="namedview861"
     pagecolor="#ffffff"
     bordercolor="#666666"
     borderopacity="1.0"
     inkscape:pageshadow="2"
     inkscape:pageopacity="0.0"
     inkscape:pagecheckerboard="0"
     showgrid="true"
     inkscape:zoom="39.949625"
     inkscape:cx="3.1915194"
     inkscape:cy="6.7334801"
     inkscape:window-width="1920"
     inkscape:window-height="1163"
     inkscape:window-x="0"
     inkscape:window-y="0"
     inkscape:window-maximized="1"
     inkscape:current-layer="svg859">
    <inkscape:grid
       type="xygrid"
       id="grid963" />
  </sodipodi:namedview>
  <g
     fill="#222222"
     id="g951"
     transform="rotate(-90,8.5,8.5)">
    <path
       id="path949"
       d="M 11,5 H 10 C 9.742188,5 9.472656,5.128906 9.28125,5.3125 L 9,5.59375 V 0 H 7 V 5.59375 L 6.71875,5.3125 C 6.527344,5.128906 6.257812,5 6,5 H 5 V 6 C 5,6 5.089844,6.550781 5.28125,6.75 L 8,9.40625 10.71875,6.75 C 10.910156,6.550781 11,6.308594 11,6 Z m 0,0 M 6,2 H 3 C 2,2 2,3 2,3 v 10 c 0,0 0,1 1,1 h 11 c 1,0 1,-1 1,-1 v -3 c 0.14,0 0.28,0 0.41,-0.03 C 16.32,9.78 17,8.97 17,8 17,6.9 16.1,6 15,6 V 3 C 15,2 14,2 14,2 h -4 v 2 h 3 v 1 h -1 v 6 h 1 v 1 H 4 V 4 H 6 Z M 16,8 C 16,8.41 15.73,8.75 15.38,8.91 15.26,8.96 15.14,9 15,9 14.45,9 14,8.55 14,8 c 0,-0.55 0.45,-1 1,-1 0.55,0 1,0.45 1,1 z" />
  </g>
</svg>
